<svg xmlns="http://www.w3.org/2000/svg" width="623" height="445.04" viewBox="0 0 623 445.04">
  <path id="white-arrow" d="M297-440H743q17,0,28.5-11.5T783-480q0-17-11.5-28.5T743-520H297L411-634q12-12,11.5-28A42.189,42.189,0,0,0,411-690a40.785,40.785,0,0,0-28.5-12.5Q366-703,354-691L171-508a35.09,35.09,0,0,0-8.5,13,44.27,44.27,0,0,0-2.5,15,44.27,44.27,0,0,0,2.5,15,35.09,35.09,0,0,0,8.5,13L354-269q12,12,28.5,11.5A40.785,40.785,0,0,0,411-270a42.189,42.189,0,0,0,11.5-28q.5-16-11.5-28Z" transform="translate(-160 702.52)" fill="#fff"/>
</svg>
