<svg xmlns="http://www.w3.org/2000/svg" width="623" height="445.04" viewBox="0 0 623 445.04">
  <path id="white-arrow" d="M646-440H200q-17,0-28.5-11.5T160-480q0-17,11.5-28.5T200-520H646L532-634q-12-12-11.5-28A42.189,42.189,0,0,1,532-690a40.785,40.785,0,0,1,28.5-12.5Q577-703,589-691L772-508a35.09,35.09,0,0,1,8.5,13,44.27,44.27,0,0,1,2.5,15,44.27,44.27,0,0,1-2.5,15,35.09,35.09,0,0,1-8.5,13L589-269q-12,12-28.5,11.5A40.785,40.785,0,0,1,532-270a42.189,42.189,0,0,1-11.5-28q-.5-16,11.5-28Z" transform="translate(-160 702.52)" fill="#fff"/>
</svg>
