<svg xmlns="http://www.w3.org/2000/svg" width="800" height="800" viewBox="0 0 800 800">
  <path id="flag_circle_24dp_E8EAED_FILL1_wght400_GRAD0_opsz24" d="M380-440H480l29,58a34.517,34.517,0,0,0,15,16.5,42.966,42.966,0,0,0,21,5.5H680q17,0,28.5-11.5T720-400V-560q0-17-11.5-28.5T680-600H600l-29-58a34.518,34.518,0,0,0-15-16.5,42.966,42.966,0,0,0-21-5.5H360q-17,0-28.5,11.5T320-640v370q0,13,8.5,21.5T350-240q13,0,21.5-8.5T380-270ZM520-520ZM480-80q-83,0-156-31.5T197-197q-54-54-85.5-127T80-480q0-83,31.5-156T197-763q54-54,127-85.5T480-880q83,0,156,31.5T763-763q54,54,85.5,127T880-480q0,83-31.5,156T763-197q-54,54-127,85.5T480-80Z" transform="translate(-80 880)" fill="#fff"/>
</svg>
