<svg xmlns="http://www.w3.org/2000/svg" width="840" height="840" viewBox="0 0 840 840">
  <path id="award_star_24dp_E8EAED_FILL1_wght400_GRAD0_opsz24" d="M480-381l77,46q11,7,21.5-.5T586-356l-20-87,68-59q10-9,6-21.5T622-537l-89-7-35-83q-5-12-18-12t-18,12l-35,83-89,7q-14,1-18,13.5t6,21.5l68,59-20,87q-3,13,7.5,20.5t21.5.5ZM346-160H240q-33,0-56.5-23.5T160-240V-346L83-424a89.855,89.855,0,0,1-17-26.5A76.52,76.52,0,0,1,60-480a76.52,76.52,0,0,1,6-29.5A89.854,89.854,0,0,1,83-536l77-78V-720q0-33,23.5-56.5T240-800H346l78-77a89.855,89.855,0,0,1,26.5-17,76.52,76.52,0,0,1,29.5-6,76.52,76.52,0,0,1,29.5,6A89.855,89.855,0,0,1,536-877l78,77H720q33,0,56.5,23.5T800-720v106l77,78a89.855,89.855,0,0,1,17,26.5,76.52,76.52,0,0,1,6,29.5,76.52,76.52,0,0,1-6,29.5A89.855,89.855,0,0,1,877-424l-77,78v106q0,33-23.5,56.5T720-160H614L536-83a89.854,89.854,0,0,1-26.5,17A76.52,76.52,0,0,1,480-60a76.52,76.52,0,0,1-29.5-6A89.855,89.855,0,0,1,424-83Z" transform="translate(-60 900)" fill="#001a40"/>
</svg>
