<svg xmlns="http://www.w3.org/2000/svg" width="800" height="720" viewBox="0 0 800 720">
  <path id="corporate_fare_24dp_E8EAED_FILL1_wght400_GRAD0_opsz24" d="M160-120q-33,0-56.5-23.5T80-200V-760q0-33,23.5-56.5T160-840H400q33,0,56.5,23.5T480-760v80H800q33,0,56.5,23.5T880-600v400q0,33-23.5,56.5T800-120Zm0-80H400v-80H160Zm0-160H400v-80H160Zm0-160H400v-80H160Zm0-160H400v-80H160ZM480-200H800V-600H480ZM600-440q-17,0-28.5-11.5T560-480q0-17,11.5-28.5T600-520h80q17,0,28.5,11.5T720-480q0,17-11.5,28.5T680-440Zm0,160q-17,0-28.5-11.5T560-320q0-17,11.5-28.5T600-360h80q17,0,28.5,11.5T720-320q0,17-11.5,28.5T680-280Z" transform="translate(-80 840)" fill="#fff"/>
</svg>
